<?xml version="1.0" encoding="utf-8"?>

<!DOCTYPE svg PUBLIC "-//W3C//DTD SVG 1.1//EN" "http://www.w3.org/Graphics/SVG/1.1/DTD/svg11.dtd">
<svg version="1.1" id="Layer_1" xmlns="http://www.w3.org/2000/svg" xmlns:xlink="http://www.w3.org/1999/xlink" x="0px" y="0px"
	 viewBox="0 0 1774 1664.246" enable-background="new 0 0 1774 1664.246" xml:space="preserve">
<g>
	<path d="M586.274,663.993c-7.829,46.97-10.98,94.841-9.137,143.254c190.34-90.385,418.867-95.427,619.898,0.102l0.011-0.187
		c58.391,29.244,101.458,54.994,158.478,102.671l-0.007,0.041c147.207,125.019,242.417,303.607,255.144,514.76
		c-190.49,95.182-393.347,100.745-573.406,36.437c-40.27,32.135-83.472,60.758-128.658,85.244
		c380.214,184.218,759.973,20.521,815.028-41.615c10.296-11.414,16.124-27.193,16.124-42.173
		C1739.749,864.299,1141.236,454.572,586.274,663.993z"/>
	<path d="M736.754,1461.094l-0.027-0.021c-180.575,64.521-383.595,58.41-573.378-36.419
		c12.442-206.655,104.972-387.272,255.155-514.808c-7.716-50.958-10.879-102.906-9.492-154.028
		C177.578,912.752,34.241,1174.612,34.241,1462.192c0,22.786,12.284,44.048,32.058,55.489
		c514.706,297.722,1171.496-12.256,1267.99-599.874c-37.086-30.517-77.207-57.217-119.497-79.53
		c-17.29,214.969-130.772,413.226-310.018,536.8l0.155,0.103C850.381,1411.149,806.699,1435.516,736.754,1461.094z"/>
	<path d="M740.467,1438.719c44.965-16.846,88.154-38.242,128.644-63.726C450.581,1086.327,449.528,460.213,887,171.239
		c174.775,115.458,283.354,287.047,318.259,478.372c46.679,18.297,93.187,41.192,138.139,68.797
		C1323.294,441.23,1168.935,184.336,919.05,40.675c-19.664-11.322-44.224-11.478-64.093-0.015
		C337.915,339.197,281.271,1062.552,740.467,1438.719z"/>
</g>
</svg>
